<svg width="119" height="150" viewBox="0 0 119 150" fill="none" xmlns="http://www.w3.org/2000/svg">
<path d="M118.762 86.6251V2.8846C51.4893 -3.60575 0.704102 2.8846 0.704102 2.8846C0.704102 2.8846 0.704102 86.6251 0.704102 86.6438C6.05678 143.416 59.2292 150.074 59.7328 149.999C69.2445 148.265 113.819 139.313 118.762 86.6251ZM19.653 107.532C20.7347 108.26 22.0029 108.577 23.1593 109.08C24.5953 112.829 23.1966 116.54 22.3946 114.992C20.9772 112.307 20.4176 110.069 19.653 107.532ZM19.7276 66.3707L19.6343 66.2775C19.5224 66.2775 12.1555 70.9215 7.38096 68.702C10.9432 66.7251 23.3085 58.8733 26.6842 56.6539C28.2695 56.9896 28.9222 56.4301 29.4258 56.0757C28.1389 56.1503 23.8493 56.8217 26.0128 52.9984C26.852 56.4301 32.8388 53.2781 35.0023 52.7746C41.0077 51.3944 40.9704 57.8102 40.4482 60.4586C40.2617 61.447 42.2946 62.1557 43.2831 62.0065C41.5673 66.2402 38.6205 62.249 38.2661 63.8716C38.1169 64.5244 36.1586 65.0466 36.1586 66.6692C36.1773 68.8886 37.0352 67.6763 37.1284 69.4108C37.2217 71.0893 36.4197 69.7838 36.6062 71.5929C36.886 74.465 41.6419 71.2199 43.6002 71.9845C44.5886 72.3762 45.2414 73.2528 46.1926 73.0849C46.4723 72.8611 46.3418 71.7607 46.3045 71.3877C46.2112 70.4738 44.514 70.3619 43.7307 69.131C43.0406 68.0493 44.514 64.7855 45.2973 63.8156C46.435 69.2056 51.4893 67.5084 52.2353 73.1782C52.7202 74.7821 50.5008 76.5539 52.2913 79.165C50.9671 80.4518 49.3631 86.5878 52.1421 89.4787C51.6758 90.7842 51.0417 93.7869 53.5222 95.5587C52.6829 97.3305 52.8881 99.5126 53.5781 101.732C52.0302 101.732 52.3472 93.0595 43.0779 92.7798C42.8728 92.7238 42.8168 93.7683 43.0779 94.2345C44.197 96.1928 45.6704 96.0809 45.3533 100.669C45.2414 102.236 44.3275 100.389 43.824 99.9602C42.7049 98.9717 41.8284 98.8412 41.3435 95.6147C37.5761 98.5614 37.9491 102.142 38.1915 103.951C38.1915 103.951 37.3523 101.695 36.4011 99.3634C36.3451 99.2328 40.2244 94.5889 40.8399 93.4699C48.6544 79.4074 35.7856 98.0206 35.767 97.9646C35.0769 96.3607 34.4614 94.9806 34.0698 94.5329C34.163 94.3464 36.3078 91.9405 37.2777 89.9263C43.3204 77.3372 33.6781 94.1226 33.3424 93.8056C32.615 93.1528 32.0182 92.3322 31.552 92.6306C31.4401 94.5702 30.9738 94.3091 31.123 96.2674C30.1159 97.6103 27.9524 99.7178 26.4417 100.781C26.4417 100.781 26.0687 97.2932 26.162 97.1626C26.9266 96.2301 29.8921 93.0409 30.5075 92.0897C40.4109 76.5352 25.8636 95.8385 25.8449 95.6706C25.733 95.0552 24.9497 94.0294 24.0918 93.1714C24.0918 93.1714 27.2997 88.7886 28.1016 87.166C34.1257 74.7634 23.2525 92.6492 23.1406 92.5933C22.8795 92.4627 22.8608 92.4627 22.5438 92.3508C22.2454 92.2576 22.8795 88.7886 23.2898 86.6997C24.1104 82.578 21.9097 85.8978 21.3129 92.4441C20.7533 92.5373 19.3919 92.6679 18.8883 93.1342C19.224 94.8873 19.6343 93.5445 20.3617 95.223C21.2383 97.2372 19.1494 100.52 20.9585 102.944C21.6672 103.877 21.7045 103.728 21.574 104.324C20.4549 104.25 19.7649 104.231 19.0562 105.182C17.676 98.9158 17.7133 95.8944 18.049 89.5346C18.1982 86.6438 19.1494 82.2609 18.7018 82.1677C18.2915 82.0931 11.7265 98.9904 10.1412 102.31C7.38096 101.378 11.8571 86.737 17.5641 79.7058C18.105 77.4678 14.58 81.9812 12.4725 83.7716C10.5329 85.4129 8.08968 87.5763 5.42267 86.8303C8.85435 83.2121 16.6875 76.442 17.5641 74.7448C18.2915 73.2901 12.2114 79.2582 5.77703 77.0388C9.99203 74.7821 19.7089 69.8211 19.7276 66.3707ZM31.3095 98.1511C31.3282 99.6991 31.2163 100.837 31.6825 102.403C32.4099 104.772 32.0369 104.045 31.0484 103.224C30.2651 102.347 29.5191 101.62 29.146 100.594C29.0341 99.8856 29.631 99.8297 31.3095 98.1511ZM46.8453 60.0669C45.9128 58.463 47.9644 56.9336 47.9644 56.9336C47.9084 61.4284 53.6528 58.3511 56.6555 59.7685C57.3828 60.1042 57.8864 60.7383 58.1848 61.4097C54.9583 59.1717 48.9901 63.7224 46.8453 60.0669ZM13.0321 24.1275C7.90318 24.1275 8.01508 16.4248 13.0321 16.4248C18.0677 16.4248 18.0677 24.1275 13.0321 24.1275ZM13.0321 39.4954C7.79128 39.4954 7.79128 31.8115 13.0321 31.8115C18.0677 31.8115 18.105 39.4954 13.0321 39.4954ZM22.7676 22.8965H18.2915V18.495H22.7676V22.8965ZM22.7676 38.2272H18.2915V33.8257H22.7676V38.2272ZM58.9122 45.7993C58.9122 45.7993 54.2309 43.2628 48.729 42.8898C43.4137 42.5355 32.671 46.7878 24.4275 46.2283V10.0091C24.4275 10.0091 33.8273 11.2587 37.688 9.76662C50.8179 4.69369 58.8935 10.3634 58.8935 10.3634V45.7993H58.9122ZM67.9763 51.6928C68.2001 53.0543 66.9319 53.4087 66.9319 53.4087C68.9088 53.8749 69.8413 52.7 70.233 51.954C70.9977 55.1059 67.8084 55.2737 66.82 55.4602C66.82 55.4602 68.4239 55.9265 68.5172 56.9709C68.7223 59.6379 70.4382 59.4141 70.8112 59.1903C70.7552 59.5074 70.2144 61.1113 68.2934 59.6752C67.9763 59.9923 68.8156 60.4959 68.9834 61.82C69.2072 63.4986 69.1513 65.0466 71.0723 66.0537C69.8973 66.9862 68.4985 64.543 68.368 64.8414C68.2374 65.1771 70.0092 66.0723 68.0509 70.6976C67.1557 70.1754 67.6592 70.2873 66.6148 69.0564C65.8128 68.385 65.5144 68.2358 66.1672 69.3362C67.3235 70.7723 67.6033 74.092 67.193 74.9686C66.2418 74.5583 66.4843 73.7936 65.3652 72.7492C65.2533 73.1968 65.7196 75.3789 66.8759 76.4233C68.8902 78.2324 69.5989 80.4332 69.6362 80.8622C69.804 82.5034 69.2818 84.6855 69.0767 86.793C68.1068 86.6624 67.2862 83.9208 67.0624 84.07C66.7827 84.2565 67.1743 86.7557 69.0021 88.4529C69.8787 91.0266 69.5243 92.4068 69.3005 92.5C68.9834 92.6306 68.0136 89.8703 67.4727 90.3552C70.0652 96.9388 68.2561 99.2142 67.566 101.247C67.0251 99.1769 66.764 97.6103 66.0926 95.2603C64.6752 96.3607 64.3395 98.0019 62.6236 99.5126C62.6236 96.8269 61.0756 90.3552 59.8447 88.8445C59.7888 88.7699 57.6253 94.6448 56.6368 97.2559C55.3499 100.65 55.1634 104.884 56.6368 108.185C53.4476 103.634 53.0932 95.1857 55.8535 94.048C56.096 93.4512 55.6857 91.4556 55.0702 91.6981C54.9023 92.6679 55.0142 93.5072 54.2123 94.4583C52.1048 93.8429 53.0559 91.2504 53.2424 90.4112C55.9841 87.1287 54.2682 86.364 54.1377 86.4573C53.8393 87.2033 53.5782 88.1358 52.7389 88.4715C50.9857 85.4502 52.1048 80.6943 55.4432 77.1507C55.5924 75.8265 53.9512 78.1392 52.8881 78.0646C52.6083 75.5095 53.5408 71.0893 58.2594 70.9215C57.3642 70.6604 56.8793 70.4925 56.6555 69.7465C58.0729 69.5413 62.549 69.187 61.8216 65.662C61.3927 66.091 61.2621 66.7251 60.1058 67.4338C59.3225 67.9187 58.4646 67.956 58.017 67.266C60.0872 66.5759 59.4157 64.0581 56.6928 64.8041C55.8721 65.0279 54.6412 64.17 54.5853 63.2002C55.1821 63.797 56.413 63.3494 57.1217 62.9018C60.1618 60.9248 62.0268 63.797 62.4371 64.4125C62.5677 64.4125 63.7986 61.5403 59.4717 60.7756C59.1173 59.7685 58.1289 57.978 55.1821 58.2019C54.2123 54.7888 51.2841 56.4674 51.3774 58.0153C48.2628 55.7213 51.4334 52.8305 52.6829 52.3829C53.5595 52.4575 53.3543 55.2178 54.8837 54.7515C55.2567 54.6396 53.69 52.8492 54.2869 52.0472C55.6856 51.2452 55.667 53.073 56.3571 52.4016C56.6928 51.2079 58.0729 50.5365 59.2106 50.406C62.4558 49.921 64.9363 53.4087 67.9763 51.6928ZM96.6048 46.3588C89.7041 46.8251 75.3619 42.8898 71.725 42.8898C64.2089 42.8898 60.5721 45.818 60.5721 45.818C60.5721 45.818 60.5907 11.6876 60.5721 10.4567C60.5721 10.4567 70.4568 5.83138 77.6372 8.47974C86.4403 11.7249 96.6048 10.2888 96.6048 10.2888V46.3588ZM105.706 32.4269C109.511 31.8674 110.089 36.3622 110.089 36.3622C109.157 35.6162 107.273 35.2804 105.986 36.1011C101.734 38.8427 97.8916 38.8613 97.8916 38.8613V31.998C97.8916 31.998 98.6936 33.4527 105.706 32.4269ZM110.201 23.0271C110.164 22.8219 110.126 22.5049 110.07 22.0759C109.977 21.3859 108 20.9942 106.62 21.6097C104.68 22.4676 99.794 25.2465 98.0222 24.7243V17.8609C102.405 19.7633 104.121 18.0474 105.538 18.0474C109.865 18.0474 110.089 22.0946 110.089 22.0946C110.145 22.5049 110.182 22.8219 110.201 23.0271ZM105.296 94.1599C104.009 94.4956 100.633 95.8385 99.8126 97.1813C100.242 89.8703 97.8916 82.6899 97.127 80.9554C95.6536 77.5797 97.7797 88.8259 97.9289 91.4183C97.9289 91.5302 85.7875 75.8079 93.1171 87.912C95.0195 91.0453 97.9849 93.0968 97.9849 93.1528C98.0408 95.3349 97.8916 96.9388 97.4813 98.1138C96.7353 98.7106 80.957 77.1134 89.6668 92.0711C90.7485 93.9175 97.071 99.5313 97.0337 99.6618C96.6234 100.52 95.9147 101.751 94.9449 102.665C94.777 102.497 91.308 99.9416 91.2707 99.7737C91.0096 98.0952 90.991 96.5285 88.9394 97.7035C88.9394 97.7035 81.1622 88.658 84.7617 94.9992C86.3284 97.7781 87.3728 98.0765 87.7831 98.5801C87.7831 98.5801 86.5708 100.221 86.1978 101.956C86.0486 102.646 79.4463 94.6448 82.0387 99.6805C82.8594 101.284 85.8807 103.056 85.8434 103.168C85.5264 104.213 85.228 105.238 84.8923 105.891C84.482 106.73 78.7003 111.337 78.7003 111.337C78.7003 111.337 79.838 107.682 82.2812 105.891C83.68 104.865 83.68 105.089 84.6125 104.511C84.5939 103.97 84.0716 103.093 83.4002 102.851C82.561 102.553 79.8193 103.056 79.8193 103.056C80.0804 101.695 78.8682 98.7293 78.8868 95.4841C77.861 95.5774 76.0519 97.1813 75.6043 98.0765C75.2873 103.448 74.1123 101.844 73.0306 105.723C71.8369 104.101 73.1052 101.769 71.9488 100.259C70.3449 98.1698 70.1025 96.7523 69.86 94.1972C70.233 93.9921 71.8742 92.183 70.3822 88.3783C70.1398 82.4101 72.8068 80.1348 68.0323 75.9757C68.4239 75.8452 68.7223 72.8611 68.7223 72.8611C72.2286 74.7262 71.5385 70.6976 72.9 69.8957C75.0635 68.6274 74.6718 67.3219 73.702 65.6993C79.9126 67.4711 73.4222 71.7048 76.2385 71.798C78.2714 71.854 79.6328 71.3504 80.5281 69.9703C81.4792 68.5155 80.3602 67.639 82.9899 65.289C83.251 65.0652 83.9597 63.4799 81.8709 63.051C81.4046 62.9577 81.8709 61.1673 81.8709 61.1673C80.1923 62.5847 79.6701 64.5803 76.9845 63.3121C75.6043 62.6593 74.7091 63.2934 74.1496 63.5732C74.1496 63.5732 73.8698 62.4542 75.0075 62.0625C77.9543 61.074 78.6817 59.899 78.5138 59.2649C78.1222 57.7356 77.9916 59.2649 78.0848 57.661C78.1221 57.0269 78.8682 56.1503 79.4836 55.4043C81.4792 52.9984 82.8967 53.8936 83.4002 54.1174C84.5566 53.2222 84.7617 53.2781 85.8434 52.8492C87.6898 52.1218 91.6997 53.3341 93.9377 54.3599C95.0195 54.8448 96.325 55.1432 97.5746 54.8634C97.5559 55.5162 97.1083 55.8705 96.6421 56.0011C95.952 56.2249 95.1127 56.0011 95.1687 56.5047C95.206 56.8031 96.1571 56.859 96.754 57.0269C100.074 57.9408 104.363 60.9062 101.547 60.272C101.211 60.1974 103.58 62.0438 105.37 64.4311L111.693 70.5671C111.395 70.9215 109.194 70.6044 102.163 64.0208C101.155 64.916 110.704 72.0964 114.64 79.7245C114.304 79.9669 109.399 78.1765 107.627 76.3487C104.904 73.5325 101.771 66.3521 100.484 67.4152C100.335 67.4711 105.669 75.7892 108.299 80.7129C109.623 83.2121 110.723 86.7743 110.816 89.4787C111.245 102.758 109.231 101.732 109.25 101.732C106.135 91.2691 104.68 79.1277 100.148 73.5139C98.3579 71.2572 105.016 83.2867 105.296 94.1599ZM91.5505 106.096C90.1517 107.327 89.2378 107.756 89.5362 107.159C89.8719 106.469 90.1331 105.91 90.3196 105.388C90.3942 105.201 91.5505 106.096 91.5505 106.096ZM90.6366 104.436C90.9537 103.317 90.9537 102.553 91.0842 101.564C91.1402 101.135 91.1588 101.191 91.1775 100.837C91.1775 100.725 94.2175 103.355 94.3853 103.466C93.6207 104.418 92.9679 104.772 92.2406 105.443C91.737 105.014 90.5993 104.548 90.6366 104.436ZM100.484 107.812C96.269 111.971 89.9465 110.46 84.9669 112.698C80.4535 114.34 77.1896 118.517 72.4524 119.58C71.0536 120.028 70.8298 120.718 71.725 120.7C72.2473 120.681 75.1381 123.702 79.7447 121.371C81.2927 120.588 86.0672 117.921 86.8879 117.771C84.2955 120.233 82.9899 122.453 80.6773 123.74C79.2598 124.542 73.4782 126.593 67.7339 125.474C65.1787 124.97 63.2204 127.339 63.8732 127.283C65.2347 126.91 66.764 127.097 67.6965 128.309C69.3751 129.614 71.781 131.256 73.8698 128.812C74.5599 128.01 77.861 126.295 80.9757 129.447C77.6745 129.279 77.9916 135.21 71.7437 134.52C69.431 134.501 64.3022 129.204 62.8474 130.845C60.255 133.755 68.4053 136.515 64.8803 140.171C61.6911 143.472 57.8864 137.541 57.8864 137.541C59.882 138.38 63.5375 138.921 61.9336 135.676C61.2994 134.389 60.0685 133.233 60.0685 130.864C59.7888 129.689 52.4964 140.264 47.666 135.489C45.7636 133.606 41.9216 129.503 38.4526 127.936C47.666 127.153 49.0647 130.845 49.5123 131.424C52.4591 135.396 55.1821 131.368 55.8162 130.659C56.7674 129.558 58.1289 128.066 57.6439 127.843C54.0631 126.145 49.9973 125.791 46.9386 127.19C53.4662 118.219 58.5392 126.612 58.5392 126.612C59.2479 127.059 58.3527 121.296 51.8996 120.979C47.8711 120.774 44.3275 124.411 41.53 124.411C39.2732 124.411 32.4099 119.786 30.8059 115.664C34.7971 118.648 39.8887 120.364 43.0593 118.461C49.0274 114.899 56.5249 120.271 56.8793 119.618C55.2194 118.312 51.4147 113.239 41.1756 116.13C37.203 118.406 35.5245 114.433 33.0999 114.377C37.2403 110.703 40.1312 112.568 41.5672 112.68C41.903 112.68 39.8328 110.964 38.378 110.815C27.0758 109.64 19.8954 106.525 19.8954 106.525C19.8395 106.525 20.8466 104.25 25.6957 105.891C25.6957 105.891 21.3315 103.224 21.3688 99.7924C21.518 97.6849 22.5251 95.4095 20.9212 93.6564C27.4862 93.3953 22.8235 102.534 27.4302 104.903C27.5235 104.94 26.0687 102.72 28.1203 100.986C29.0714 103.672 31.4214 105.07 33.0626 105.499C33.4543 105.294 33.9206 104.455 33.9206 104.474C32.1861 101.601 31.9623 98.263 32.4285 94.4397L32.5031 94.4024C32.8761 94.421 33.5103 95.7266 33.9579 96.6777C34.909 98.7293 34.8904 101.695 36.7927 104.138C37.8558 105.481 38.5086 106.824 39.4598 107.476C39.8701 106.525 39.5717 104.884 39.4971 104.455C39.2733 102.907 38.3034 100.184 40.9704 97.7781C42.22 101.359 43.8986 100.333 44.141 102.049C44.4581 104.455 44.3462 104.082 44.1037 105.928C44.2343 108.483 46.5469 109.192 48.5985 110.833C53.2424 113.351 56.3198 114.731 58.334 117.958C59.3225 112.493 44.5886 111.412 46.491 100.874C46.2858 96.6777 47.0132 96.3234 44.0291 93.7496C49.9413 93.9175 53.1678 103.616 53.4849 105.388C54.0817 108.633 56.0587 108.801 58.763 113.053C59.1546 113.202 53.9139 101.751 60.1618 91.9592C60.1618 91.9592 62.2693 97.0507 61.2808 100.389C60.684 102.403 61.2435 104.623 61.3554 105.891C61.4673 107.178 61.0943 101.247 65.5517 98.1884C65.8315 100.426 67.9763 103.914 65.9434 107.626C63.4629 112.158 63.2764 110.535 63.2391 116.093C63.4629 116 64.097 112.251 65.8128 110.125C69.4124 105.63 66.8386 103.224 70.3449 99.3261C70.6247 101.266 71.1282 100.501 71.3334 102.236C71.7997 106.134 67.7338 110.386 68.6477 110.255C69.6735 110.106 71.3334 109.211 71.8929 106.264C71.8929 106.264 73.3849 108.95 72.0234 109.864C69.5429 111.486 69.0207 113.239 69.4124 115.216C71.408 112.848 74.1123 110.218 73.646 106.824C73.8698 104.791 76.0893 103.951 76.5182 99.2142C76.5928 98.4309 77.3761 97.4797 78.1595 97.0507C77.8237 99.7178 79.894 102.478 77.5253 105.723C78.0662 106.003 80.0431 103.187 82.9526 104.213C77.115 105.257 78.8122 111.598 74.3548 114.508C73.0119 115.384 73.2357 116.373 72.8254 116.485C76.8166 116.261 79.8939 111.505 80.4348 111.132C84.4447 108.409 85.3212 107.999 86.9252 103.597C87.5593 101.919 87.093 101.191 89.3124 98.9344C90.2823 101.154 88.8648 105.779 88.5291 106.768C87.8017 108.894 85.2839 110.722 85.8248 110.722C96.5861 105.966 96.4556 102.776 99.0293 99.3821C99.794 98.0765 103.636 95.8198 105.053 95.6147C104.699 96.3234 103.207 97.517 103.151 98.8039C103.021 101.172 102.256 102.627 101.044 104.548C101.715 105.387 103.002 102.982 104.307 104.194C102.61 104.753 101.827 106.674 100.484 107.812ZM102.274 107.197C101.64 110.33 100.559 113.239 98.675 115.944C97.3508 117.865 96.8099 114.135 97.9476 110.535C99.5702 109.882 101.193 108.614 102.274 107.197ZM94.0869 27.6524C93.8445 27.5592 93.3223 27.4659 92.9866 27.4659C92.6509 27.4659 92.483 27.9322 92.8933 28.0441C93.1544 28.1187 93.6393 28.1933 94.1056 28.2306C94.4227 28.2492 94.3294 27.7457 94.0869 27.6524ZM92.8747 29.1631C93.1358 29.2377 93.602 29.3123 94.0869 29.3496C94.3854 29.3869 94.2921 28.8833 94.0496 28.7901C93.8072 28.6968 93.285 28.6036 92.9679 28.6036C92.6136 28.5849 92.4644 29.0325 92.8747 29.1631ZM92.8747 36.0078C92.6322 35.7281 91.9981 35.2058 91.4199 34.7955C91.0842 35.0753 90.4128 35.5602 89.9838 35.784C89.6668 35.4296 89.2378 34.9261 88.5851 34.4039C88.1934 34.665 87.0557 35.7094 86.5895 35.9705C87.2795 35.9892 88.3053 36.213 88.3426 36.8657C88.3612 37.3879 88.3053 40.6331 88.3426 41.2299C88.7716 41.3232 89.2565 41.2859 89.8719 41.2486C89.9092 40.7823 89.8906 37.0522 89.9092 36.6046C90.1144 36.4927 90.3568 36.3808 90.4688 36.2689C90.7112 36.4368 91.4199 37.276 91.8489 37.4999C92.1287 37.276 92.8933 36.6233 93.2104 36.3062C93.5461 35.9519 93.1731 35.7281 92.8747 36.0078ZM90.9723 30.5619C91.364 29.8532 91.9421 28.6968 91.9048 27.8203C91.8489 26.7385 91.1961 25.1532 89.6108 24.6124C87.6152 25.3211 86.3657 26.9064 86.3097 28.7714C86.2724 29.8718 87.2049 32.1099 89.1259 32.1285C89.7227 31.5877 90.3569 30.9722 90.9723 30.5619ZM89.76 30.9908C89.387 30.8043 88.0442 29.7599 87.7271 28.9579C87.3168 27.8762 87.3168 26.6826 88.4732 25.9925C89.3684 26.3282 90.4128 27.2048 90.5061 28.0068C90.618 29.0698 90.3196 30.3008 89.76 30.9908ZM89.7041 22.6541L91.1402 21.0874C91.1402 21.0874 90.5061 20.5839 90.1144 20.1176C90.1144 19.7819 90.1144 16.63 90.245 16.4621C89.1632 15.4923 88.3799 15.3804 87.9136 15.4364C87.0371 15.5669 86.1418 16.6859 85.8621 17.0776C85.6569 17.376 85.7129 17.749 85.8621 17.8796C86.0299 18.0288 86.2538 18.1593 86.4962 18.3085C86.4589 18.2899 86.4216 18.2526 86.3843 18.2339C85.974 18.6256 85.3772 19.726 85.3958 20.4906C85.3958 21.2553 86.0859 22.3557 86.5522 22.766C87.0557 22.3743 87.8204 21.7216 88.9208 21.4978C89.0327 22.0386 89.2938 22.3557 89.7041 22.6541ZM88.8462 19.0173C88.1375 18.7561 86.7387 18.1034 86.2351 17.6931C86.1045 17.5812 86.0859 17.5252 86.2538 17.2641C86.5708 16.7792 86.9438 16.3689 87.2049 16.3875C87.4287 16.3875 88.8462 17.1522 88.8089 17.5439C88.8275 17.8236 88.8462 18.4204 88.8462 19.0173ZM88.8462 21.162C88.4732 21.1807 88.1561 21.274 87.6898 21.4978C87.2982 21.1807 86.2911 19.9684 87.0371 18.6069C86.9252 18.551 86.8319 18.495 86.72 18.4204C87.4101 18.8121 88.1934 19.1291 88.8275 19.3343C88.8275 19.8752 88.8089 20.3601 88.8089 20.5466C88.8089 20.789 88.8275 20.9755 88.8462 21.162ZM84.7058 14.6903C84.3701 14.6903 82.0947 14.7463 82.0387 14.6157C81.8709 14.1308 81.8336 13.534 82.2253 12.7134C82.4118 12.3031 82.0387 12.1352 81.8895 12.5455C81.7403 12.9558 80.6027 14.5225 79.4277 15.026C78.8122 15.2685 80.1737 15.828 80.0804 15.8094C80.0804 17.3201 80.2856 19.5954 80.6213 20.5093C80.8265 21.0501 81.4419 21.9267 81.8709 21.6656C82.1506 21.4978 82.7475 20.3041 82.934 20.1549C83.2697 19.8938 82.934 19.4276 82.6729 19.7073C82.3745 19.9684 82.1133 19.5581 82.0201 19.2784C81.9268 19.0172 81.6471 15.6788 81.7776 15.6042C81.7776 15.6042 84.4633 15.2872 84.7431 15.2872C84.8923 15.2685 84.9109 14.6903 84.7058 14.6903ZM77.3202 20.8263L78.4392 19.3903C77.6372 19.2597 77.3015 19.1105 76.742 18.4577L76.7607 14.8768L75.623 13.7392L75.2313 13.7765L73.4409 15.3431C73.2544 15.6229 73.7393 15.6229 73.9818 15.2872L75.2686 16.0332L75.3246 19.5022C75.4178 19.9125 75.7722 20.3228 76.2758 20.8263H77.3202ZM76.3504 12.8626L76.9658 12.3217V11.4452L76.1266 10.6245L75.2873 11.3333L75.3059 12.3404L75.8281 12.8626H76.3504ZM73.4968 11.7622C73.0119 11.7063 71.4453 11.8368 70.8671 11.9301C70.289 12.0233 70.289 12.3031 70.7739 12.359C71.2401 12.415 71.3334 12.5082 71.5945 13.1424C71.8183 13.7765 70.6806 16.6859 70.4009 17.376C70.0652 16.8724 68.8529 14.2241 68.8529 13.8511C68.8529 13.59 69.3937 13.3289 69.6175 13.2729C70.0651 13.1424 70.0465 12.8253 69.7108 12.7693C68.7596 12.6388 65.4398 12.3404 64.843 12.2658C64.4141 12.2285 64.2276 12.7134 64.7311 12.7134C65.272 12.732 65.8128 12.5642 66.4097 13.4221C67.0811 14.3919 69.1886 18.924 69.6921 20.8263C69.9346 20.416 72.0421 14.3173 72.1727 13.6646C72.3219 13.0304 72.7695 12.415 73.3849 12.2285C74.0377 12.0793 73.9817 11.7995 73.4968 11.7622ZM63.5002 26.5334C63.5375 29.0698 64.5446 29.2936 65.7009 29.9464C66.8013 30.5619 68.6291 30.45 70.0092 30.077C70.5314 29.9278 70.8112 29.8905 70.7925 30.3381C70.7925 30.6178 71.1842 30.5619 71.1842 30.3567C71.1842 30.1516 71.2028 28.0254 71.2028 27.783C71.2028 27.5219 70.8112 27.5592 70.8112 27.783C70.8112 28.1373 70.8112 28.2492 70.4568 28.7528C69.5056 30.1516 67.137 30.0956 65.8688 28.3798C65.4398 27.8016 65.0295 27.0183 65.5331 26.8691C66.0367 26.7199 67.566 27.0369 68.5731 27.1115C69.1699 27.1488 70.5687 27.298 70.7552 27.3913C70.9044 27.5032 71.1469 27.6524 71.1469 27.354C71.1655 27.0556 71.1655 26.0671 71.1655 25.7687C71.1655 25.4703 70.9417 25.6195 70.7739 25.7128C70.606 25.8247 69.114 26.0858 68.5172 26.179C67.9204 26.2909 66.074 26.4401 65.589 26.2723C65.0855 26.1044 65.2533 25.1159 65.7009 24.5378C66.9878 22.8406 69.5802 22.9525 70.5314 24.3699C70.8485 24.8548 70.8485 24.9854 70.8485 25.3398C70.8485 25.5636 71.2215 25.5822 71.2215 25.3398C71.2401 25.0973 71.2588 22.5235 71.2588 22.3184C71.2588 22.1132 70.8858 22.0386 70.8858 22.3184C70.8858 22.5049 70.4755 22.6168 70.0652 22.5049C69.2632 22.2438 66.9132 22.6168 65.8688 23.1949C64.9176 23.7545 63.4815 24.9854 63.5002 26.5334ZM63.9478 31.0281C63.9851 31.7555 64.2462 37.9661 64.1716 38.824C64.1157 39.3089 64.7871 39.8312 65.3839 40.2415C65.6823 39.8871 66.3164 38.9546 66.8386 38.5629C67.1557 38.3018 66.9319 38.134 66.6894 38.2272C66.2232 38.451 65.7382 38.2832 65.6823 37.7236C65.645 37.1828 65.645 31.8301 65.6823 31.0654C65.3279 31.0841 64.3022 31.0654 63.9478 31.0281ZM69.0767 36.1197C68.6664 36.5114 67.9204 37.5185 67.939 38.2645C67.9577 39.0292 68.312 39.7566 68.7596 40.1669C69.5056 39.6447 69.9906 38.9173 71.2401 38.4324C71.3893 39.0105 71.7996 39.1038 72.3032 39.4768C72.6016 39.1597 73.6647 37.8542 73.8885 37.6117C74.131 37.3879 73.9818 37.1641 73.646 37.388C73.3103 37.6118 73.0865 37.4812 72.527 36.8657C72.5457 36.53 72.4897 33.863 72.6203 33.7138C72.1167 33.1729 71.6318 32.4083 71.035 32.4642C70.1584 32.5388 69.0394 34.0682 68.7596 34.4598C68.5358 34.7396 68.7783 35.84 68.9275 35.9892C69.0021 36.0638 69.0207 36.0638 69.0767 36.1197ZM69.6921 36.5487C70.1771 36.8284 70.4195 36.6606 71.1842 36.5673C71.1842 37.0522 71.1655 37.4812 71.1655 37.705C70.8298 37.9475 70.4195 38.1526 69.9346 38.3951C69.5802 38.0967 69.0207 37.8356 69.6921 36.5487ZM69.3005 34.3479C69.6175 33.863 69.8227 33.7698 70.0838 33.7698C70.3076 33.7884 71.2028 34.4039 71.1655 34.8142C71.2028 35.0753 71.2215 35.6348 71.2215 36.213C70.5501 36.2876 70.0838 36.3622 69.3378 35.7467C69.1699 35.6161 69.1326 34.609 69.3005 34.3479ZM74.6718 33.3594C74.1123 33.6392 75.4365 34.1614 75.3432 34.1428C75.3246 35.6534 75.0262 38.1153 75.5484 38.88C75.8654 39.3649 76.5928 39.6633 77.0777 39.4768C77.544 39.2903 78.1408 38.3578 78.3273 38.2086C78.6817 37.9475 78.3833 37.6677 78.0848 37.9475C77.8051 38.2086 77.0218 38.0221 76.9099 37.761C76.8353 37.4812 76.7234 34.1987 76.8726 34.1241C76.8726 34.1241 77.8051 34.1055 78.0662 34.1055C78.2713 34.1055 78.2714 33.5087 78.0848 33.5087C77.7491 33.5087 76.9845 33.4341 76.9472 33.3035C76.8353 32.9864 76.9658 31.998 77.171 31.5877C77.3761 31.1773 76.9845 30.9908 76.8353 31.4012C76.6488 31.8488 75.6789 32.8745 74.6718 33.3594ZM74.9516 26.5334C75.0075 27.9508 74.2615 29.4429 73.4595 30.1329C74.8583 29.7786 75.0262 28.9393 75.7908 27.9695C76.2198 28.5849 76.9845 29.3496 77.5626 29.6667C77.9729 29.4056 79.1106 28.1187 79.3531 27.8576C78.5325 27.6338 76.9472 26.7945 76.5555 25.9179C76.2385 25.2651 76.3131 24.9481 76.6301 24.4259C76.9099 24.7989 78.8309 25.6755 79.7074 24.2021C78.7563 23.8477 77.8983 23.2322 77.6186 22.7287C77.3575 22.9338 76.5182 23.8664 76.0333 24.1461C75.9214 23.6426 75.1381 23.083 74.504 22.9711C74.2988 23.1949 72.8068 24.3326 72.1354 24.6497C71.9302 24.7429 72.0048 25.2092 72.3032 25.0973C72.583 24.9854 73.0306 24.631 73.5714 24.3699C74.1869 24.631 74.877 25.2465 74.9516 26.5334ZM81.6098 26.7758C81.7776 25.9179 82.3931 25.5636 82.6542 25.3025C83.0459 25.7314 83.4375 26.235 84.0343 26.235C84.6125 26.235 85.2093 25.9739 85.3958 25.7314C84.9109 25.3398 83.8292 24.2021 83.624 23.9969C83.0832 24.2953 80.6959 25.5449 80.4908 26.981C80.1924 29.0885 80.8638 29.5175 81.7963 30.6738C82.3185 31.3266 83.1951 31.3638 83.5867 31.2519C84.0157 30.9535 85.5823 29.4802 85.7502 29.2936C85.8994 29.1071 85.6756 28.9393 85.4891 29.1258C85.3026 29.3123 85.3772 29.3869 85.1161 29.4242C84.855 29.4615 83.7919 29.648 83.1764 29.3309C82.3931 28.8833 81.386 27.9322 81.6098 26.7758ZM80.4348 33.5087C80.0805 33.863 79.465 34.2733 78.8868 34.9261C79.3717 34.9634 79.7634 35.0566 79.9872 35.5229C80.2297 35.9705 80.0245 37.8915 80.0618 38.6375C80.0991 39.3462 80.5281 39.5141 81.1062 40.0923C81.6657 39.9431 83.251 39.2903 83.7919 38.9173C83.7359 39.5141 84.482 40.1669 84.9296 40.2974C85.228 39.9804 85.545 39.7938 85.974 39.4022C85.545 39.1224 85.601 39.0851 85.4518 38.5256C85.3212 37.9848 85.4891 35.9332 85.4891 35.0566C85.1534 34.5531 84.6125 33.9376 84.0343 33.5273C83.6427 33.8817 83.1018 34.3666 82.4677 35.038C82.934 34.982 83.8478 35.1685 83.9038 35.5602C83.9411 36.0638 84.0157 37.1828 83.9038 38.0407C83.7919 38.9173 81.4606 38.507 81.4233 37.9288C81.3673 37.332 81.5352 35.5975 81.5538 34.7769C81.2554 34.236 81.0503 33.9563 80.4348 33.5087ZM64.9363 54.5277V54.4345C63.5934 54.248 62.5304 53.2968 61.2808 52.8305C59.5649 52.1778 57.7558 53.5019 57.7558 53.7071C57.7558 54.1734 58.2408 54.3972 59.6209 53.5392C58.5392 54.7888 59.7701 55.8146 59.7701 55.8146C59.3225 55.74 58.6697 55.5908 58.2594 55.367C58.1848 55.8146 58.8003 55.9824 59.0987 56.1876C61.4113 57.1201 62.922 54.9194 64.9363 54.5277ZM61.057 55.684C61.057 55.684 61.6725 55.0313 61.6725 54.5464C61.6725 53.9122 61.0756 53.446 61.0756 53.446C61.5979 53.5952 62.8288 54.2853 63.2577 54.5837L61.057 55.684ZM48.4866 38.3018L49.1393 37.5745C48.3933 37.4439 48.7477 37.4439 48.356 37.0895L48.3374 34.0682L47.3675 32.6507L46.9945 32.7067L45.4839 34.1241C45.0922 34.4785 45.4465 34.6463 45.8942 34.2547L46.9013 34.7769L46.9199 37.9661C46.9945 38.3578 47.3489 38.451 47.8338 38.9546L48.4866 38.3018ZM48.8223 27.8016C49.3259 29.2563 50.5381 29.704 51.4333 29.7786C51.6944 29.275 52.198 28.529 52.4591 28.1746C52.8694 27.6338 52.4591 27.3167 52.1607 27.9322C51.9369 28.3984 50.7806 27.8949 50.3703 27.4846C49.8108 26.9623 49.4564 25.5822 49.904 25.0973C50.3516 24.6124 51.0044 24.8362 51.8437 24.7989C52.4032 24.7802 52.5151 24.258 52.6083 23.9969C52.3472 23.8664 51.9369 23.6426 51.4147 23.3255C50.8738 23.6799 50.0346 24.3886 49.6802 24.687C49.2326 25.0786 48.3187 26.4028 48.8223 27.8016ZM51.0044 35.7654C50.4635 36.3249 50.0532 36.9403 50.0532 37.7236C50.0719 38.4697 50.333 39.2157 51.079 39.5514C51.7504 39.0478 52.6083 38.451 53.4476 38.3018C53.8579 38.7867 54.4734 39.1224 54.865 39.4208C55.1261 39.1038 55.9468 38.4324 56.1892 38.2272C56.413 38.0034 56.1892 37.6864 55.9654 37.9848C55.7975 38.2459 55.2007 38.0594 55.0329 37.7796C55.0329 37.4626 54.7345 34.1241 54.865 33.9563C54.3801 33.4154 53.5408 32.2031 52.9813 32.2591C52.1607 32.3337 50.9484 33.5086 50.6873 33.8817C50.4822 34.1614 50.7433 35.5416 50.9111 35.6721C50.9484 35.7281 50.9671 35.7281 51.0044 35.7654ZM53.1492 36.0638C52.5337 36.0824 52.0115 35.8959 51.3401 35.2991C51.2095 35.1872 51.0976 34.4225 51.2468 34.1801C51.5452 33.7138 51.5453 33.5646 51.8064 33.5646C52.0115 33.5646 53.2424 34.3106 53.1865 34.7209C53.2051 35.0007 53.1865 35.5416 53.1492 36.0638ZM51.5079 36.1757C52.0675 36.5487 52.4032 36.5114 53.1119 36.4368C53.0746 36.8284 53.0559 37.1828 53.0559 37.332C53.0559 37.4998 53.1305 37.6304 53.1678 37.7796C52.7948 37.9102 52.3286 37.9848 51.9742 38.1713C51.6571 37.8915 50.4449 37.0709 51.5079 36.1757ZM56.1519 29.9651L56.8233 29.2377C56.0587 29.0885 56.0587 29.1444 55.667 28.7901L55.7043 25.3025L55.0515 24.3326L54.6972 24.3699L53.1865 25.7687C52.7762 26.1417 53.1492 26.3096 53.5968 25.8993L54.3801 26.3842L54.4174 29.6667C54.492 30.0583 54.8464 30.1889 55.3313 30.6924L56.1519 29.9651ZM54.9769 17.749C54.6599 17.7304 54.1936 18.3085 56.0214 18.495C56.3011 18.5323 56.6741 17.8609 54.9769 17.749ZM54.9956 16.6673C54.6972 16.6486 54.2309 17.4879 56.04 17.4133C56.3198 17.3947 56.5436 16.7419 54.9956 16.6673ZM55.3499 22.1505L54.5666 21.3486L53.7833 22.0573L53.802 23.0271L54.2869 23.512H54.7718L55.3499 22.9898V22.1505ZM53.746 14.6717C53.2238 14.2987 52.6456 13.4221 51.3587 13.3662C50.0719 13.3102 48.6171 14.4852 48.1509 15.2126C47.5168 16.1824 48.3001 17.0217 49.102 17.6558C48.5798 18.1034 47.8525 18.7934 47.181 19.4276C47.4421 19.726 48.9155 20.416 49.7548 20.3974C51.0044 20.3601 52.1607 19.726 52.8694 19.1478C54.175 18.122 53.7274 17.0217 52.4032 16.257C52.2726 16.1824 52.1607 16.1637 52.0302 16.1264C52.8508 15.4923 53.5782 14.9141 53.746 14.6717ZM50.4635 17.376C50.8925 17.5625 51.3401 17.7677 51.825 18.0474C52.5151 18.4391 52.1607 19.1851 51.4147 19.5395C50.65 19.8938 49.2885 18.9053 49.0647 18.495C49.3445 18.2526 49.8854 17.8423 50.4635 17.376ZM51.8437 15.5296C51.7318 15.6229 51.396 15.884 51.0417 16.1637C50.8365 16.201 50.6127 16.2197 50.4076 16.201C49.7548 16.1078 49.4378 15.6229 49.1393 15.2126C48.8223 14.8022 49.6242 14.4479 50.0346 14.5038C50.4262 14.5598 51.3214 15.0447 51.8437 15.5296ZM46.4723 18.3645C44.5513 18.8494 43.6561 17.3201 43.4696 16.9097C44.2343 16.1264 45.5584 14.8209 46.3604 14.1681C45.8382 13.6832 45.6144 12.8812 44.6632 12.8066C43.8426 12.8253 41.9216 13.7578 41.5859 16.1824C41.2688 18.5137 43.4509 19.7819 45.1854 19.8379C45.7636 19.8379 46.491 19.0918 46.8453 18.9053C47.6286 18.5323 47.3489 18.1593 46.4723 18.3645ZM43.3204 16.4435C42.8355 14.8955 43.022 14.3546 43.9918 13.59C44.2156 14.1308 44.7565 14.5038 45.0735 14.6903C44.5327 15.2312 43.6748 16.1824 43.3204 16.4435ZM41.1196 15.0633C41.4553 14.7463 41.101 14.5038 40.8026 14.7836C40.5788 14.5225 40.0379 13.963 39.7395 13.6086C39.4225 13.8697 38.7137 14.2987 38.3034 14.5225C37.9864 14.1681 37.5947 14.1681 36.9792 13.6646C36.6249 13.9257 35.8602 14.5038 35.4499 15.0074C36.1773 15.2126 36.7368 15.2685 36.7741 15.884C36.7927 16.3875 36.7181 19.5395 36.7554 20.1176C37.1471 20.2109 37.632 20.1549 38.1915 20.1363C38.2288 19.6887 38.2102 15.7348 38.2102 15.3058C38.4153 15.1939 38.6391 15.082 38.7324 14.9701C38.9562 15.138 39.4225 15.8094 39.7955 16.0332C40.0752 15.828 40.8026 15.3804 41.1196 15.0633ZM35.0769 23.2136C34.2376 23.2882 33.044 24.258 32.6896 25.0973C32.5404 25.433 32.7456 26.6453 32.8948 26.7758C33.0067 26.8691 33.0813 26.9437 33.1745 27.0183C32.6337 27.5219 32.1115 27.9508 32.1301 28.7155C32.1488 29.4428 32.7269 30.0956 33.473 30.4313C33.8646 29.8159 34.4987 29.4429 35.1701 29.2936C35.2261 29.8718 35.3567 30.3008 35.7483 30.5805C36.0281 30.2821 37.1098 29.3309 37.3336 29.1258C37.5574 28.902 37.3895 28.6409 37.1284 28.902C36.9606 29.0512 36.5689 28.8274 36.457 28.6409C36.457 28.3238 36.457 24.9854 36.6062 24.8362C36.1027 24.2953 35.6364 23.1577 35.0769 23.2136ZM35.1328 26.608C34.2003 27.2048 33.9019 27.1861 33.2678 26.4774C32.9507 26.1044 32.988 25.4144 33.1186 25.1532C33.3984 24.7056 33.9019 24.2394 34.1444 24.258C34.3495 24.2767 35.0955 25.1719 35.0396 25.5822C35.1142 25.7874 35.1328 26.179 35.1328 26.608ZM35.1515 28.2865C35.1515 28.473 35.1515 28.6222 35.1515 28.7901C34.965 28.8274 34.7785 28.8833 34.5174 28.9952C34.1817 28.7155 32.5591 28.1746 33.6222 27.3354C34.2749 27.7084 34.5174 27.41 35.1515 27.0369C35.1515 27.5778 35.1515 28.0814 35.1515 28.2865ZM34.4241 21.1993C34.3122 21.0501 34.0884 20.8263 34.0884 20.5279C34.0884 20.3414 34.1071 18.3272 34.1071 18.0661C34.1071 17.8236 33.6408 17.8609 33.6408 18.0661C33.6222 18.4204 33.6781 19.0359 33.3611 19.5208C32.4845 20.8823 30.7873 21.4605 29.6123 19.7819C29.202 19.2224 29.1087 18.3831 29.0714 17.7863C28.9968 16.9844 29.5937 15.9399 29.631 15.8467C31.1416 13.8697 33.2305 15.3431 33.3984 16.1451C33.5103 16.6859 33.6222 17.3387 33.6222 17.6744C33.6035 17.8982 34.1071 17.8796 34.1071 17.6371C34.1071 17.3947 34.1257 14.3546 34.1257 14.1495C34.1257 13.9443 33.7341 13.8884 33.7154 14.1495C33.6968 14.6344 33.417 14.6717 33.044 14.5598C32.2793 14.336 30.6008 13.963 29.6123 14.5411C28.7544 15.0447 27.4302 16.2383 27.4489 17.7304C27.4675 20.1922 28.4 20.3974 29.4818 21.0688C30.4889 21.6656 31.8877 21.274 33.1745 20.9009C33.6781 20.7704 33.7527 21.0874 33.9952 21.4418C34.3868 22.0013 34.7225 21.647 34.4241 21.1993ZM27.5981 24.687C26.7401 25.9925 26.2739 28.0441 27.7473 29.2563C28.4373 29.8345 29.0155 30.2821 30.4329 30.0397C30.7127 29.4802 30.8432 29.2937 31.3468 28.6409C30.377 28.7901 29.6123 28.6222 28.9036 28.0814C27.4302 26.9437 27.8965 25.0973 28.3254 24.4818C29.1274 23.3069 30.2464 24.9854 30.4516 25.2092C30.7127 24.8921 31.1603 24.4445 31.6079 24.1088C31.1789 23.5307 30.8059 22.9898 30.5075 22.6354C29.575 22.9711 28.1949 23.8104 27.5981 24.687ZM28.2135 35.9519C27.8965 38.3018 30.1159 39.6819 31.1789 40.1482C31.4401 39.6073 31.9996 38.7308 32.5218 38.1153C32.9321 37.6491 32.4845 37.5185 32.1115 37.8729C31.6266 38.4137 30.1532 37.8915 29.7802 37.2014C30.4889 36.6606 32.3166 35.1312 33.1186 34.4785C32.5964 33.9749 31.7758 32.744 31.6452 32.0353C30.9178 32.5388 28.5679 33.5273 28.2135 35.9519ZM30.4889 33.4154C30.694 33.9563 31.3841 35.0007 31.6825 35.1685C31.1603 35.6908 29.8548 36.586 29.5004 36.8284C28.829 36.0078 28.4746 34.6463 30.4889 33.4154ZM35.3193 32.5761C34.8531 33.0051 34.4987 33.3968 33.8273 33.9376C34.1444 34.292 34.6666 34.7396 34.7225 35.355C34.7598 35.9705 34.7412 38.8613 34.7785 39.5887C35.2634 39.5887 35.1888 39.6446 36.0281 39.6073C35.9535 39.1224 36.0094 35.3737 36.0094 34.8328C36.3265 34.5344 36.3638 34.4785 36.7368 34.2174C36.9979 34.4412 37.6134 34.5717 37.6134 34.982C37.6134 35.3923 37.7253 37.1641 37.5947 37.8169C37.4269 38.6189 37.5015 39.197 37.9304 39.999C38.2661 39.626 39.4784 38.7681 39.7582 38.5629C40.0193 38.3391 39.8887 38.1713 39.553 38.2645C39.1987 38.3391 39.124 38.4137 39.124 38.1899C39.124 37.7609 38.9562 35.8027 38.9189 34.5531C38.8816 33.3035 38.2661 32.9305 37.9118 32.7626C37.5574 33.1543 36.7554 33.6579 36.2705 34.0682C35.8975 33.7884 35.7297 33.1916 35.3193 32.5761ZM40.355 29.5548C40.7839 29.219 41.0823 28.6595 41.2502 28.5103C41.5673 28.2492 41.3062 27.9695 41.0264 28.2306C40.8026 28.4357 40.2431 27.9508 40.2058 27.9135C40.0193 27.6897 39.7395 24.8362 39.8701 24.7802C39.8701 24.7802 41.6792 24.5564 41.9216 24.5564C42.1081 24.5751 42.1268 23.9969 41.9403 23.9783C41.6419 23.9783 40.2617 24.1648 40.2058 24.0342C40.1312 23.7358 39.9447 22.71 40.3923 21.8335C40.5974 21.4605 40.3923 21.0875 40.2431 21.4791C40.0752 21.8708 38.9375 23.6426 38.2102 23.941C37.6134 24.1834 37.6693 24.3326 38.061 24.4259C38.3594 24.4818 38.6951 24.8548 38.6205 24.8548C38.5645 26.3282 38.4153 28.1373 38.8629 28.902C39.1986 29.3683 39.982 29.8718 40.355 29.5548ZM46.6029 30.1889C46.3791 30.6365 46.0247 31.0468 45.3533 31.3452C45.7636 31.6996 46.2858 32.1472 46.6215 32.371C47.0132 31.9234 47.3862 31.513 47.8338 31.0841C47.3862 31.0095 46.864 30.767 46.6029 30.1889ZM43.7307 28.5849C44.3089 28.529 45.2414 28.8833 46.2672 28.7901C47.4981 28.6968 48.4493 26.7945 47.9271 25.3211C47.4421 23.9223 45.8755 24.1648 44.8124 23.8291C43.8426 23.568 43.4509 22.9525 44.4954 22.2624C45.7449 21.4605 47.2743 22.7473 47.4235 23.0271C47.6473 23.4374 47.8338 23.4374 47.8338 22.8965C47.8711 21.7402 47.7592 22.393 47.6473 21.2926C47.61 20.9009 47.3302 20.8636 47.2929 21.2367C47.2743 21.6097 46.808 21.4978 46.4537 21.4978C46.0993 21.4978 45.0549 21.3299 44.1597 21.8335C43.5815 22.1692 42.2946 23.195 43.022 24.4072C43.451 25.1159 45.9501 25.7128 46.5842 26.1231C47.2183 26.5334 47.3489 27.5778 46.7521 28.0627C46.0061 28.6595 43.9732 28.156 43.6748 27.8016C43.2644 27.354 43.1152 26.981 43.022 26.4401C42.9287 25.8993 42.4811 25.9552 42.4811 26.4401C42.4811 26.925 42.593 28.6222 42.6863 29.0139C42.7609 29.4242 43.1712 29.2937 43.2085 28.9766C43.2644 28.6782 43.4696 28.6036 43.7307 28.5849ZM41.101 33.8257C40.6161 34.1801 41.6605 34.6836 41.5672 34.6463C41.6045 36.1197 41.3994 37.6304 41.8843 38.3764C42.2014 38.8427 43.1898 39.1784 43.3577 38.7308C43.5256 38.2832 44.2716 37.3693 44.4394 37.2201C44.7565 36.9403 44.4767 36.6979 44.2156 36.959C43.6748 37.5371 43.3763 37.276 42.966 36.8844C42.7795 36.6606 42.7049 34.609 42.8355 34.5531C42.8355 34.5531 43.824 34.4039 44.0664 34.4039C44.2529 34.4039 44.2343 33.8257 44.0478 33.8257C43.7494 33.8257 42.8728 33.8257 42.8168 33.6952C42.7049 33.4154 42.9847 32.0166 43.0406 31.4012C43.0779 30.9722 42.8541 30.823 42.7236 31.2333C42.6117 31.6623 41.6605 33.4154 41.101 33.8257Z" fill="#800000"/>
</svg>
