<svg width="183" height="150" viewBox="0 0 183 150" fill="none" xmlns="http://www.w3.org/2000/svg">
<path d="M12.4328 72.5511C8.4296 68.2812 4.49568 64.0806 0.450684 59.7614C2.18984 58.3409 3.84288 56.9671 5.52136 55.6251C8.51273 53.2334 11.5234 50.8658 14.5188 48.4791C18.1507 45.5854 21.7861 42.6959 25.3997 39.7795C28.9494 36.9146 32.457 33.9973 36.014 31.1415C39.4565 28.3776 42.9516 25.6792 46.3989 22.9212C49.4316 20.495 52.4176 18.0105 55.447 15.5801C58.9618 12.76 62.5126 9.98475 66.0266 7.16363C68.6338 5.07053 71.2359 2.96898 73.7816 0.802379C74.8149 -0.0770385 75.549 -0.326444 76.8874 0.526123C86.0446 6.35929 95.3027 12.0335 104.495 17.8124C111.687 22.3341 118.817 26.9552 126 31.4906C132.613 35.6656 139.247 39.8072 145.911 43.9004C146.707 44.3892 146.912 44.8941 146.911 45.7414C146.892 59.6571 146.898 73.5729 146.898 87.59C150.577 87.59 154.228 87.59 157.988 87.59C157.988 75.6705 157.988 63.7611 157.988 51.5189C166.215 56.6843 174.216 61.7074 182.354 66.8167C180.258 68.7005 178.225 70.5679 176.145 72.3817C174.579 73.748 172.937 75.0273 171.356 76.3775C167.426 79.734 163.5 83.0968 159.594 86.481C157.189 88.5643 154.843 90.7151 152.433 92.793C149.415 95.396 146.349 97.9432 143.323 100.537C141.117 102.429 138.954 104.37 136.752 106.266C133.593 108.987 130.405 111.675 127.249 114.399C124.946 116.389 122.69 118.434 120.383 120.42C117.362 123.02 114.302 125.573 111.277 128.169C109.037 130.091 106.84 132.064 104.603 133.989C101.477 136.678 98.3217 139.333 95.1983 142.025C92.9274 143.982 90.6881 145.975 88.434 147.952C87.6827 148.611 86.9656 149.319 86.1543 149.893C85.91 150.066 85.238 150.021 85.0381 149.812C82.7348 147.404 80.49 144.939 78.2188 142.5C76.6911 140.859 75.1566 139.224 73.6067 137.604C71.1648 135.052 68.6881 132.533 66.2606 129.967C61.9224 125.382 57.6082 120.775 53.2872 116.173C50.5326 113.24 47.7871 110.298 45.0321 107.365C40.6789 102.731 36.3194 98.1025 31.966 93.4685C29.2108 90.5357 26.4569 87.6018 23.7115 84.6599C19.9704 80.651 16.2381 76.6339 12.4328 72.5511ZM49.856 40.8188C49.856 56.4153 49.856 72.0118 49.856 87.5984C53.7261 87.5984 57.4278 87.5984 61.2384 87.5984C61.2384 80.8486 61.2384 74.1921 61.2384 67.4826C64.7534 67.4826 68.1596 67.548 71.5618 67.4603C73.9456 67.3989 76.3525 67.3027 78.6992 66.918C84.9745 65.8891 89.8331 62.7863 92.5415 56.8213C94.1167 53.3521 94.611 49.6724 94.3165 45.9141C93.7656 38.8838 90.467 33.5732 84.1665 30.2387C80.4427 28.268 76.3857 27.8322 72.2772 27.7989C65.3222 27.7426 58.3664 27.7834 51.411 27.7834C50.9202 27.7834 50.4294 27.7834 49.856 27.7834C49.856 32.1679 49.856 36.3551 49.856 40.8188ZM115.511 87.6918C122.728 87.6918 129.946 87.6918 137.157 87.6918C137.157 84.1865 137.157 80.8154 137.157 77.3314C129.102 77.3314 121.156 77.3314 113.13 77.3314C113.13 60.7861 113.13 44.3559 113.13 27.8791C109.344 27.8791 105.641 27.8791 101.921 27.8791C101.921 47.8469 101.921 67.7196 101.921 87.6918C106.41 87.6918 110.822 87.6918 115.511 87.6918Z" fill="#0000FF"/>
<path d="M158.236 28.8302C158.236 32.2693 158.236 35.5744 158.236 38.9501C154.444 38.9501 150.742 38.9501 146.968 38.9501C146.968 35.2281 146.968 31.5258 146.968 27.6843C150.518 27.6843 154.047 27.6657 157.575 27.7277C157.801 27.7316 158.016 28.359 158.236 28.8302Z" fill="#0000FF"/>
<path d="M71.7688 37.5374C73.2642 37.6888 74.6632 37.7013 75.9907 38.0157C80.4941 39.0822 83.043 42.811 82.8171 47.8215C82.5362 54.0486 79.5076 57.2711 73.1211 58.0267C71.757 58.1881 70.3632 58.1145 68.983 58.121C66.4183 58.1331 63.8535 58.1245 61.2315 58.1245C61.2315 51.2072 61.2315 44.4084 61.2315 37.5369C64.6941 37.5369 68.1668 37.5369 71.7688 37.5374Z" fill="#0000FF"/>
</svg>
