<?xml version="1.0" encoding="UTF-8" standalone="no"?>
<svg
   xmlns:dc="http://purl.org/dc/elements/1.1/"
   xmlns:cc="http://creativecommons.org/ns#"
   xmlns:rdf="http://www.w3.org/1999/02/22-rdf-syntax-ns#"
   xmlns:svg="http://www.w3.org/2000/svg"
   xmlns="http://www.w3.org/2000/svg"
   xmlns:sodipodi="http://sodipodi.sourceforge.net/DTD/sodipodi-0.dtd"
   xmlns:inkscape="http://www.inkscape.org/namespaces/inkscape"
   sodipodi:docname="Logo Final.svg"
   inkscape:version="1.0 (4035a4fb49, 2020-05-01)"
   inkscape:export-ydpi="96"
   inkscape:export-xdpi="96"
   inkscape:export-filename="C:\Users\wchang\bitmap.png"
   id="svg1101"
   version="1.1"
   viewBox="0 0 98.309181 97.442787"
   height="97.442787mm"
   width="98.309181mm">
  <defs
     id="defs1095">
    <inkscape:path-effect
       effect="fillet_chamfer"
       id="path-effect1075"
       is_visible="true"
       lpeversion="1"
       satellites_param="F,0,0,1,0,2.6458333,0,1 @ F,0,0,1,0,2.6458333,0,1 @ F,0,0,1,0,2.6458333,0,1 @ F,0,0,1,0,2.6458333,0,1 @ F,0,0,1,0,2.6458333,0,1 @ F,0,0,1,0,2.6458333,0,1"
       unit="px"
       method="auto"
       mode="F"
       radius="10"
       chamfer_steps="1"
       flexible="false"
       use_knot_distance="true"
       apply_no_radius="true"
       apply_with_radius="true"
       only_selected="false"
       hide_knots="false" />
  </defs>
  <sodipodi:namedview
     fit-margin-bottom="0"
     fit-margin-right="0"
     fit-margin-left="0"
     fit-margin-top="0"
     inkscape:window-maximized="1"
     inkscape:window-y="-8"
     inkscape:window-x="-8"
     inkscape:window-height="972"
     inkscape:window-width="1680"
     showgrid="false"
     inkscape:document-rotation="0"
     inkscape:current-layer="layer1"
     inkscape:document-units="mm"
     inkscape:cy="216.7501"
     inkscape:cx="68.191944"
     inkscape:zoom="0.96359327"
     inkscape:pageshadow="2"
     inkscape:pageopacity="0.0"
     borderopacity="1.0"
     bordercolor="#666666"
     pagecolor="#ffffff"
     id="base" />
  <metadata
     id="metadata1098">
    <rdf:RDF>
      <cc:Work
         rdf:about="">
        <dc:format>image/svg+xml</dc:format>
        <dc:type
           rdf:resource="http://purl.org/dc/dcmitype/StillImage" />
        <dc:title></dc:title>
      </cc:Work>
    </rdf:RDF>
  </metadata>
  <g
     transform="translate(-7.5418391,-63.915508)"
     id="layer1"
     inkscape:groupmode="layer"
     inkscape:label="Layer 1">
    <g
       style="font-weight:bold;font-size:9.17223px;line-height:1.25;font-family:Inter;-inkscape-font-specification:'Inter Bold';letter-spacing:2.57969px;word-spacing:0px;fill:#e77500;fill-opacity:1;stroke-width:0.213656"
       id="text1017-6-7-3"
       transform="matrix(0.68013331,0.68013331,-0.73515,0.73515,0,0)"
       aria-label="PRINCETON">
      <path
         id="path1123"
         style="font-style:normal;font-variant:normal;font-weight:normal;font-stretch:normal;font-size:9.17223px;font-family:'Franklin Gothic Medium';-inkscape-font-specification:'Franklin Gothic Medium, ';fill:#e77500;fill-opacity:1;stroke-width:0.213656"
         d="m 93.070541,7.9693632 h -1.101742 v -6.113327 h 2.503553 q 1.070392,0 1.585434,0.541914 0.519521,0.5374353 0.519521,1.2719303 0,0.8375034 -0.559829,1.3570242 -0.559828,0.5195209 -1.419725,0.5195209 h -1.527212 z m 0,-3.3679281 h 1.303281 q 0.510564,0 0.779281,-0.2508032 0.268718,-0.2508031 0.268718,-0.6673155 0,-0.3762047 -0.250803,-0.6449224 -0.246325,-0.2687177 -0.895726,-0.2687177 h -1.204751 z" />
      <path
         id="path1125"
         style="font-style:normal;font-variant:normal;font-weight:normal;font-stretch:normal;font-size:9.17223px;font-family:'Franklin Gothic Medium';-inkscape-font-specification:'Franklin Gothic Medium, ';fill:#e77500;fill-opacity:1;stroke-width:0.213656"
         d="m 104.8135,7.9693632 h -1.16444 L 102.69959,5.456853 h -1.5496 v 2.5125102 h -1.10175 v -6.113327 h 2.65135 q 1.10622,0 1.62574,0.5016064 0.51952,0.4971276 0.51952,1.2898448 0,1.1778791 -1.10174,1.6212632 z m -3.66351,-3.3947999 h 1.37046 q 0.59565,0 0.88676,-0.2508031 0.29112,-0.2508032 0.29112,-0.6897087 0,-0.4030765 -0.28664,-0.649401 -0.28663,-0.2508032 -0.80167,-0.2508032 h -1.46003 z" />
      <path
         id="path1127"
         style="font-style:normal;font-variant:normal;font-weight:normal;font-stretch:normal;font-size:9.17223px;font-family:'Franklin Gothic Medium';-inkscape-font-specification:'Franklin Gothic Medium, ';fill:#e77500;fill-opacity:1;stroke-width:0.213656"
         d="m 109.62355,7.9693632 h -1.10174 v -6.113327 h 1.10174 z" />
      <path
         id="path1129"
         style="font-style:normal;font-variant:normal;font-weight:normal;font-stretch:normal;font-size:9.17223px;font-family:'Franklin Gothic Medium';-inkscape-font-specification:'Franklin Gothic Medium, ';fill:#e77500;fill-opacity:1;stroke-width:0.213656"
         d="m 118.17325,7.9693632 h -1.07039 l -2.31993,-3.9053634 q -0.0537,-0.089573 -0.17467,-0.2911109 -0.0537,-0.089573 -0.16571,-0.2821535 v 4.4786278 h -0.88676 v -6.113327 h 1.21818 l 2.14079,3.6008168 q 0.0269,0.044786 0.38964,0.6583583 V 1.8560362 h 0.86885 z" />
      <path
         id="path1131"
         style="font-style:normal;font-variant:normal;font-weight:normal;font-stretch:normal;font-size:9.17223px;font-family:'Franklin Gothic Medium';-inkscape-font-specification:'Franklin Gothic Medium, ';fill:#e77500;fill-opacity:1;stroke-width:0.213656"
         d="m 125.5182,5.8464936 1.02113,0.1119657 q -0.0985,0.9181187 -0.7121,1.5137762 -0.6091,0.5911789 -1.60335,0.5911789 -0.83751,0 -1.3615,-0.420991 -0.51953,-0.420991 -0.80168,-1.1420501 -0.28215,-0.7210591 -0.28215,-1.5899129 0,-1.3973319 0.66283,-2.2706643 0.66284,-0.877811 1.82281,-0.877811 0.90916,0 1.51377,0.5598284 0.60462,0.5598285 0.76137,1.6033488 l -1.02113,0.1074871 q -0.28215,-1.383896 -1.24506,-1.383896 -0.61805,0 -0.9629,0.577743 -0.34038,0.5732643 -0.34038,1.6660495 0,1.1106997 0.36725,1.6794854 0.36725,0.5643071 0.97186,0.5643071 0.48369,0 0.82407,-0.3806833 0.34038,-0.3806834 0.38516,-0.9091615 z" />
      <path
         id="path1133"
         style="font-style:normal;font-variant:normal;font-weight:normal;font-stretch:normal;font-size:9.17223px;font-family:'Franklin Gothic Medium';-inkscape-font-specification:'Franklin Gothic Medium, ';fill:#e77500;fill-opacity:1;stroke-width:0.213656"
         d="m 133.97385,7.9693632 h -3.97254 v -6.113327 h 3.93223 v 0.9091615 h -2.83049 V 4.42229 h 2.27514 v 0.8867683 h -2.27514 v 1.7108358 h 2.8708 z" />
      <path
         id="path1135"
         style="font-style:normal;font-variant:normal;font-weight:normal;font-stretch:normal;font-size:9.17223px;font-family:'Franklin Gothic Medium';-inkscape-font-specification:'Franklin Gothic Medium, ';fill:#e77500;fill-opacity:1;stroke-width:0.213656"
         d="m 139.64379,7.9693632 h -1.18235 V 2.8010267 h -1.62575 V 1.8560362 h 4.43384 v 0.9449905 h -1.62574 z" />
      <path
         id="path1137"
         style="font-style:normal;font-variant:normal;font-weight:normal;font-stretch:normal;font-size:9.17223px;font-family:'Franklin Gothic Medium';-inkscape-font-specification:'Franklin Gothic Medium, ';fill:#e77500;fill-opacity:1;stroke-width:0.213656"
         d="m 146.78273,8.0634144 q -1.21819,0 -1.89894,-0.9136401 -0.67627,-0.9136401 -0.67627,-2.2572284 0,-1.3346311 0.72106,-2.2303566 0.72106,-0.9002042 1.90341,-0.9002042 1.19132,0 1.88103,0.9002042 0.69418,0.8957255 0.69418,2.2437925 0,1.4152464 -0.72105,2.2885788 -0.71658,0.8688538 -1.90342,0.8688538 z m 0.009,-0.8867683 q 0.59565,0 1.00769,-0.4926491 0.41203,-0.492649 0.41203,-1.7869725 0,-1.0524775 -0.34037,-1.648135 -0.34038,-0.6001361 -1.05696,-0.6001361 -1.41525,0 -1.41525,2.2796215 0,1.1062211 0.35829,1.6794855 0.36277,0.5687857 1.03457,0.5687857 z" />
      <path
         id="path1139"
         style="font-style:normal;font-variant:normal;font-weight:normal;font-stretch:normal;font-size:9.17223px;font-family:'Franklin Gothic Medium';-inkscape-font-specification:'Franklin Gothic Medium, ';fill:#e77500;fill-opacity:1;stroke-width:0.213656"
         d="m 157.63892,7.9693632 h -1.07039 L 154.2486,4.0639998 q -0.0537,-0.089573 -0.17467,-0.2911109 -0.0537,-0.089573 -0.1657,-0.2821535 v 4.4786278 h -0.88677 v -6.113327 h 1.21818 l 2.14079,3.6008168 q 0.0269,0.044786 0.38964,0.6583583 V 1.8560362 h 0.86885 z" />
    </g>
    <path
       id="rect75-4-9-4-7"
       style="fill:#000000;fill-rule:evenodd;stroke-width:0.243779"
       d="m 33.840102,102.41454 -22.246815,22.2468 a 2.6458343,2.6458343 90.000021 0 0 -10e-7,3.74178 l 5.534658,5.53466 a 2.6458318,2.6458318 1.4892945e-5 0 0 3.741773,0 L 33.840102,120.9674 a 2.6458333,2.6458333 180 0 1 3.741774,0 l 12.970387,12.97038 a 2.6458337,2.6458337 2.2311442e-6 0 0 3.741774,0 l 5.534668,-5.53466 a 2.6458318,2.6458318 89.99999 0 0 0,-3.74178 l -22.246829,-22.2468 a 2.6458349,2.6458349 179.99999 0 0 -3.741774,0 z"
       inkscape:path-effect="#path-effect1075"
       inkscape:original-d="m 35.710989,100.54365 -25.9885888,25.98858 9.2764298,9.27644 16.712159,-16.71216 16.712161,16.71216 9.276442,-9.27644 z" />
    <path
       d="m 53.865952,72.384005 a 3.9687503,3.9687503 0 0 0 -2.82153,1.1622 L 11.40084,113.18978 a 3.9687519,3.9687519 0 0 0 0,5.61259 l 0.37982,0.37982 22.05912,-22.059125 a 2.6458339,2.6458339 0 0 1 3.74189,0 l 6.15518,6.155185 7.307572,-7.307565 a 3.9687503,3.9687503 0 0 1 5.612579,0 L 85.08833,124.40202 a 3.9687484,3.9687484 0 0 0 5.61258,0 l 5.59966,-5.59965 a 3.9687516,3.9687516 0 0 0 0,-5.61259 L 56.657001,73.546205 a 3.9687503,3.9687503 0 0 0 -2.791049,-1.1622 z"
       style="fill:#e77500;fill-opacity:1;fill-rule:evenodd;stroke-width:0.301691"
       id="rect24-2-8" />
    <g
       style="font-weight:bold;font-size:29.4254px;line-height:1.25;font-family:Inter;-inkscape-font-specification:'Inter Bold';letter-spacing:20.3729px;word-spacing:0px;fill:#ef752e;fill-opacity:1;stroke-width:0.735637"
       id="text1017-71-9"
       transform="scale(0.96185374,1.0396591)"
       aria-label="NLP">
      <path
         id="path1142"
         style="fill:#000000;stroke-width:0.735637"
         d="m 26.357209,133.80279 v 21.40029 h -4.848504 l -7.732526,-11.24351 h -0.125393 v 11.24351 H 7.8409417 V 133.80279 H 12.77304 l 7.607135,11.20171 h 0.167189 v -11.20171 z" />
      <path
         id="path1144"
         style="fill:#000000;stroke-width:0.735637"
         d="m 49.47829,155.20308 v -21.40029 h 5.809844 v 16.71898 h 8.652071 v 4.68131 z" />
      <path
         id="path1146"
         style="font-style:normal;font-variant:normal;font-weight:900;font-stretch:normal;font-family:Inter;-inkscape-font-specification:'Inter Heavy';fill:#e77500;fill-opacity:1;stroke-width:0.735637"
         d="M 86.632865,155.20308 V 133.80279 H 95.8701 q 2.382454,0 4.16929,0.94044 1.78685,0.94044 2.77953,2.64369 0.99269,1.70324 0.99269,3.98121 0,2.29885 -1.02403,3.9812 -1.01359,1.68235 -2.852679,2.59144 -1.828638,0.9091 -4.273788,0.9091 H 90.14385 v -4.51413 h 4.346934 q 1.024038,0 1.745044,-0.35527 0.731455,-0.36573 1.118081,-1.03449 0.397076,-0.66876 0.397076,-1.57785 0,-0.91955 -0.397076,-1.56741 -0.386626,-0.65831 -1.118081,-1.00314 -0.721006,-0.35528 -1.745044,-0.35528 H 92.44271 v 16.76078 z" />
    </g>
  </g>
</svg>
